<?xml version="1.0" encoding="UTF-8" standalone="no"?><!-- Generator: Gravit.io --><svg xmlns="http://www.w3.org/2000/svg" xmlns:xlink="http://www.w3.org/1999/xlink" style="isolation:isolate" viewBox="173 75.5 163.25 139.5" width="163.25pt" height="139.5pt"><g><line x1="226" y1="95" x2="188.5" y2="166.25"/><g style="isolation: isolate;"><line x1="226" y1="95" x2="188.5" y2="166.25" fill="none" vector-effect="non-scaling-stroke" stroke-width="4" stroke="rgb(127,124,175)" stroke-linejoin="miter" stroke-linecap="square" stroke-miterlimit="3"/><line x1="226" y1="95" x2="188.5" y2="166.25" fill="none" vector-effect="non-scaling-stroke" stroke-width="4" stroke="rgb(127,124,175)" stroke-linejoin="miter" stroke-linecap="square" stroke-miterlimit="3"/></g><line x1="254.75" y1="100.5" x2="325" y2="142"/><g style="isolation: isolate;"><line x1="254.75" y1="100.5" x2="325" y2="142" fill="none" vector-effect="non-scaling-stroke" stroke-width="4" stroke="rgb(127,124,175)" stroke-linejoin="miter" stroke-linecap="square" stroke-miterlimit="3"/><line x1="254.75" y1="100.5" x2="325" y2="142" fill="none" vector-effect="non-scaling-stroke" stroke-width="4" stroke="rgb(127,124,175)" stroke-linejoin="miter" stroke-linecap="square" stroke-miterlimit="3"/></g><line x1="204" y1="190" x2="305.25" y2="166.25" vector-effect="non-scaling-stroke" stroke-width="4" stroke="rgb(127,124,175)" stroke-linejoin="miter" stroke-linecap="square" stroke-miterlimit="3"/><path d="M 228.75 75.5 L 249.75 75.5 C 252.51 75.5 254.75 77.74 254.75 80.5 L 254.75 120.5 C 254.75 123.26 252.51 125.5 249.75 125.5 L 228.75 125.5 C 225.99 125.5 223.75 123.26 223.75 120.5 L 223.75 80.5 C 223.75 77.74 225.99 75.5 228.75 75.5 Z" style="stroke:none;fill:#564D80;stroke-miterlimit:10;"/><path d="M 178 165 L 199 165 C 201.76 165 204 167.24 204 170 L 204 210 C 204 212.76 201.76 215 199 215 L 178 215 C 175.24 215 173 212.76 173 210 L 173 170 C 173 167.24 175.24 165 178 165 Z" style="stroke:none;fill:#564D80;stroke-miterlimit:10;"/><path d="M 310.25 140 L 331.25 140 C 334.01 140 336.25 142.24 336.25 145 L 336.25 185 C 336.25 187.76 334.01 190 331.25 190 L 310.25 190 C 307.49 190 305.25 187.76 305.25 185 L 305.25 145 C 305.25 142.24 307.49 140 310.25 140 Z" style="stroke:none;fill:#564D80;stroke-miterlimit:10;"/><rect x="227.75" y="79" width="23" height="4" transform="matrix(1,0,0,1,0,0)" fill="rgb(235,235,235)"/><rect x="227.75" y="86" width="23" height="4" transform="matrix(1,0,0,1,0,0)" fill="rgb(235,235,235)"/><rect x="177" y="169.5" width="23" height="4" transform="matrix(1,0,0,1,0,0)" fill="rgb(235,235,235)"/><rect x="177" y="176.5" width="23" height="4" transform="matrix(1,0,0,1,0,0)" fill="rgb(235,235,235)"/><rect x="309.25" y="144" width="23" height="4" transform="matrix(1,0,0,1,0,0)" fill="rgb(235,235,235)"/><rect x="309.25" y="151" width="23" height="4" transform="matrix(1,0,0,1,0,0)" fill="rgb(235,235,235)"/><circle vector-effect="non-scaling-stroke" cx="239.25000000000003" cy="110.49999999999999" r="9.999999999999972" fill="rgb(86,77,128)" stroke-width="1" stroke="rgb(255,255,255)" stroke-linejoin="miter" stroke-linecap="square" stroke-miterlimit="3"/><rect x="237.25" y="103.5" width="4" height="14" transform="matrix(1,0,0,1,0,0)" fill="rgb(235,235,235)"/><rect x="237.25" y="103.5" width="4" height="14" transform="matrix(0,1,-1,0,349.75,-128.75)" fill="rgb(235,235,235)"/><circle vector-effect="non-scaling-stroke" cx="188.5" cy="200" r="9.999999999999972" fill="rgb(86,77,128)" stroke-width="1" stroke="rgb(255,255,255)" stroke-linejoin="miter" stroke-linecap="square" stroke-miterlimit="3"/><rect x="186.5" y="193" width="4" height="14" transform="matrix(1,0,0,1,0,0)" fill="rgb(235,235,235)"/><rect x="186.5" y="193" width="4" height="14" transform="matrix(0,1,-1,0,388.5,11.5)" fill="rgb(235,235,235)"/><circle vector-effect="non-scaling-stroke" cx="320.75" cy="175" r="10" fill="rgb(86,77,128)" stroke-width="1" stroke="rgb(255,255,255)" stroke-linejoin="miter" stroke-linecap="square" stroke-miterlimit="3"/><rect x="318.75" y="168" width="4" height="14" transform="matrix(1,0,0,1,0,0)" fill="rgb(235,235,235)"/><rect x="318.75" y="168" width="4" height="14" transform="matrix(0,1,-1,0,495.75,-145.75)" fill="rgb(235,235,235)"/><circle vector-effect="non-scaling-stroke" cx="231.25000000000006" cy="97.00000000000001" r="3.5" fill="rgb(235,235,235)"/><circle vector-effect="non-scaling-stroke" cx="180.50000000000006" cy="187" r="3.5" fill="rgb(235,235,235)"/><circle vector-effect="non-scaling-stroke" cx="312.74999999999994" cy="161.5" r="3.5" fill="rgb(235,235,235)"/><text transform="matrix(1,0,0,1,209.75,145.674)" style="font-family:'Montserrat';font-weight:800;font-size:18px;font-style:normal;fill:#564d80;stroke:none;">BIG DATA</text><text transform="matrix(1,0,0,1,209.75,167.616)" style="font-family:'Montserrat';font-weight:800;font-size:18px;font-style:normal;fill:#564d80;stroke:none;">HERO</text></g></svg>